<svg width="382" height="80" viewBox="0 0 382 80" fill="none" xmlns="http://www.w3.org/2000/svg">
<path d="M71.962 79.7154H54.6111L72.5076 50.8718L54.6111 22.0283H71.962L87.6527 47.317C89.0037 49.4944 89.0037 52.2493 87.6527 54.4267L71.962 79.7154Z" fill="black"/>
<path fill-rule="evenodd" clip-rule="evenodd" d="M101.816 22.0283L90.2738 40.7202C88.8869 42.9662 90.5026 45.8627 93.1423 45.8627H96.1656C101.468 45.8627 106.385 43.0945 109.136 38.5614L119.167 22.0283H101.816Z" fill="black"/>
<path fill-rule="evenodd" clip-rule="evenodd" d="M101.816 79.7153L90.2738 61.0234C88.8869 58.7774 90.5026 55.8809 93.1423 55.8809L96.1656 55.8809C101.468 55.8809 106.385 58.6492 109.136 63.1823L119.167 79.7153L101.816 79.7153Z" fill="black"/>
<path d="M290.277 78.8277L269.976 22.9155H286.283L297.599 59.9684L308.915 22.9155H325.333L305.032 78.8277H290.277Z" fill="black"/>
<path d="M246.626 0.284668H263.821V15.9268H246.626V0.284668ZM246.958 78.8279L246.958 22.0735H263.266V78.8279H246.958Z" fill="black"/>
<path d="M237.126 78.2732C234.242 79.2347 231.209 79.7154 228.029 79.7154C221.669 79.7154 216.529 78.0144 212.609 74.6123C208.689 71.2103 206.729 66.2551 206.729 59.7468V36.4501L206.729 21.7595L206.729 5.56274H223.037V21.7595H236.571L236.571 36.4501H223.037V57.639C223.037 60.0796 223.629 62.0025 224.812 63.4077C226.069 64.8129 227.696 65.5155 229.693 65.5155C232.208 65.5155 234.316 65.0718 236.017 64.1843L237.126 78.2732Z" fill="black"/>
<path d="M180.921 78.8279V0.284668H197.229V78.8279H180.921Z" fill="black"/>
<path d="M56.667 49.4297C56.667 51.8703 56.5931 53.9042 56.4452 55.5312H16.286C17.9131 62.6312 22.2766 66.1812 29.3766 66.1812C35.3672 66.1812 38.9622 64.1608 40.2195 59.3535H56.1597C54.8921 66.1812 50.7504 72.4306 46.0171 75.3889C41.2838 78.2733 35.589 79.7155 28.9328 79.7155C19.91 79.7155 12.847 76.8311 7.7439 71.0624C2.71476 65.2197 0.200195 58.4896 0.200195 50.8719C0.200195 45.9907 1.12467 41.4423 2.97362 37.2267C4.82256 33.0111 7.89182 29.4241 12.1814 26.4658C16.5449 23.5075 21.7959 22.0283 27.9344 22.0283C32.7417 22.0283 37.0312 22.8788 40.8031 24.5799C44.6489 26.2069 47.6812 28.3887 49.8999 31.1251C52.1186 33.8616 53.7827 36.7829 54.8921 39.8892C56.0754 42.9954 56.667 46.1756 56.667 49.4297ZM16.5079 43.9938H39.25C38.9541 41.0355 37.8448 38.6688 35.9219 36.8939C34.0729 35.0449 31.4104 34.1204 27.9344 34.1204C21.8699 34.1204 18.061 37.4116 16.5079 43.9938Z" fill="black"/>
<path d="M174.193 49.4297C174.193 51.8703 174.119 53.9042 173.971 55.5312H133.812C135.439 62.6312 139.803 66.1812 146.903 66.1812C152.893 66.1812 156.488 64.1608 157.746 59.3535H173.686C172.418 66.1812 168.277 72.4306 163.543 75.3889C158.81 78.2733 153.115 79.7155 146.459 79.7155C137.436 79.7155 130.373 76.8311 125.27 71.0624C120.241 65.2197 117.726 58.4896 117.726 50.8719C117.726 45.9907 118.651 41.4423 120.5 37.2267C122.349 33.0111 125.418 29.4241 129.708 26.4658C134.071 23.5075 139.322 22.0283 145.461 22.0283C150.268 22.0283 154.557 22.8788 158.329 24.5799C162.175 26.2069 165.207 28.3887 167.426 31.1251C169.645 33.8616 171.309 36.7829 172.418 39.8892C173.602 42.9954 174.193 46.1756 174.193 49.4297ZM134.034 43.9938H156.776C156.48 41.0355 155.371 38.6688 153.448 36.8939C151.599 35.0449 148.937 34.1204 145.461 34.1204C139.396 34.1204 135.587 37.4116 134.034 43.9938Z" fill="black"/>
<path d="M381.8 49.4297C381.8 51.8703 381.726 53.9042 381.578 55.5312H341.419C343.046 62.6312 347.409 66.1812 354.509 66.1812C360.5 66.1812 364.095 64.1608 365.352 59.3535H381.292C380.025 66.1812 375.883 72.4306 371.15 75.3889C366.417 78.2733 360.722 79.7155 354.066 79.7155C345.043 79.7155 337.98 76.8311 332.877 71.0624C327.848 65.2197 325.333 58.4896 325.333 50.8719C325.333 45.9907 326.257 41.4423 328.106 37.2267C329.955 33.0111 333.025 29.4241 337.314 26.4658C341.678 23.5075 346.929 22.0283 353.067 22.0283C357.874 22.0283 362.164 22.8788 365.936 24.5799C369.782 26.2069 372.814 28.3887 375.033 31.1251C377.251 33.8616 378.915 36.7829 380.025 39.8892C381.208 42.9954 381.8 46.1756 381.8 49.4297ZM341.641 43.9938H364.383C364.087 41.0355 362.978 38.6688 361.055 36.8939C359.206 35.0449 356.543 34.1204 353.067 34.1204C347.003 34.1204 343.194 37.4116 341.641 43.9938Z" fill="black"/>
</svg>
