<svg width="226" height="80" viewBox="0 0 226 80" fill="none" xmlns="http://www.w3.org/2000/svg">
<path d="M48.0341 67.1971H36.5557L48.395 48.1156L36.5557 29.0342H48.0341L58.4143 45.7639C59.3081 47.2044 59.3081 49.0269 58.4143 50.4673L48.0341 67.1971Z" fill="black"/>
<path fill-rule="evenodd" clip-rule="evenodd" d="M67.7852 29.0342L60.1496 41.3998C59.2321 42.8857 60.3009 44.8018 62.0472 44.8018H64.0472C67.5549 44.8018 70.8081 42.9705 72.6276 39.9716L79.2637 29.0342H67.7852Z" fill="black"/>
<path fill-rule="evenodd" clip-rule="evenodd" d="M67.7852 67.1973L60.1496 54.8316C59.2321 53.3458 60.3009 51.4296 62.0472 51.4296L64.0472 51.4296C67.5549 51.4296 70.8081 53.2609 72.6276 56.2598L79.2637 67.1973L67.7852 67.1973Z" fill="black"/>
<path d="M156.868 66.3586C154.96 66.9946 153.386 67.1968 151.282 67.1968C147.075 67.1968 143.674 66.0715 141.081 63.8209C138.488 61.5703 137.191 58.2922 137.191 53.9866V38.5746L137.191 28.8561L137.191 18.1411H147.98V28.8561H156.933L156.933 38.5746H147.98V52.5922C147.98 54.2068 148.371 55.4789 149.154 56.4085C149.986 57.3381 151.062 57.8029 152.383 57.8029C154.047 57.8029 155.743 57.5094 156.868 56.9222V66.3586Z" fill="black"/>
<path d="M120.115 66.6102V14.6499H130.904V66.6102H120.115Z" fill="black"/>
<path d="M37.9162 47.1616C37.9162 48.7762 37.8673 50.1217 37.7694 51.198H11.2021C12.2785 55.895 15.1652 58.2435 19.8622 58.2435C23.8253 58.2435 26.2035 56.9069 27.0353 53.7267H37.5806C36.742 58.2435 34.0021 62.3778 30.8707 64.3349C27.7394 66.2431 23.972 67.1971 19.5686 67.1971C13.5996 67.1971 8.92704 65.289 5.55109 61.4727C2.22406 57.6075 0.560547 53.1551 0.560547 48.1157C0.560547 44.8865 1.17213 41.8775 2.3953 39.0886C3.61848 36.2998 5.64894 33.9269 8.4867 31.9698C11.3734 30.0127 14.8472 29.0342 18.9081 29.0342C22.0884 29.0342 24.9261 29.5968 27.4214 30.7222C29.9656 31.7985 31.9716 33.2419 33.4394 35.0522C34.9072 36.8625 36.0081 38.7951 36.742 40.85C37.5248 42.9049 37.9162 45.0088 37.9162 47.1616ZM11.3489 43.5655H26.3939C26.1982 41.6084 25.4643 40.0427 24.1922 38.8685C22.9691 37.6453 21.2077 37.0337 18.9081 37.0337C14.8961 37.0337 12.3764 39.211 11.3489 43.5655Z" fill="black"/>
<path d="M115.665 47.1616C115.665 48.7762 115.616 50.1217 115.518 51.198H88.9512C90.0276 55.895 92.9142 58.2435 97.6112 58.2435C101.574 58.2435 103.953 56.9069 104.784 53.7267H115.33C114.491 58.2435 111.751 62.3778 108.62 64.3349C105.488 66.2431 101.721 67.1971 97.3177 67.1971C91.3486 67.1971 86.6761 65.289 83.3001 61.4727C79.9731 57.6075 78.3096 53.1551 78.3096 48.1157C78.3096 44.8865 78.9212 41.8775 80.1443 39.0886C81.3675 36.2998 83.398 33.9269 86.2357 31.9698C89.1224 30.0127 92.5962 29.0342 96.6571 29.0342C99.8374 29.0342 102.675 29.5968 105.17 30.7222C107.715 31.7985 109.721 33.2419 111.188 35.0522C112.656 36.8625 113.757 38.7951 114.491 40.85C115.274 42.9049 115.665 45.0088 115.665 47.1616ZM89.0979 43.5655H104.143C103.947 41.6084 103.213 40.0427 101.941 38.8685C100.718 37.6453 98.9567 37.0337 96.6571 37.0337C92.6451 37.0337 90.1254 39.211 89.0979 43.5655Z" fill="black"/>
<mask id="path-8-outside-1_306_931" maskUnits="userSpaceOnUse" x="160.934" y="16.7017" width="11" height="50" fill="black">
<rect fill="white" x="160.934" y="16.7017" width="11" height="50"/>
<path d="M162.223 25.0371V17.1026H171.216V25.0371H162.223ZM162.223 65.7017V29.9962H171.216V65.7017H162.223Z"/>
</mask>
<path d="M162.223 25.0371V17.1026H171.216V25.0371H162.223ZM162.223 65.7017V29.9962H171.216V65.7017H162.223Z" fill="#0048FF"/>
<path d="M162.223 25.0371H161.904V25.3566H162.223V25.0371ZM162.223 17.1026V16.7832H161.904V17.1026H162.223ZM171.216 17.1026H171.535V16.7832H171.216V17.1026ZM171.216 25.0371V25.3566H171.535V25.0371H171.216ZM162.223 65.7017H161.904V66.0211H162.223V65.7017ZM162.223 29.9962V29.6768H161.904V29.9962H162.223ZM171.216 29.9962H171.535V29.6768H171.216V29.9962ZM171.216 65.7017V66.0211H171.535V65.7017H171.216ZM162.223 25.0371H162.543V17.1026H162.223H161.904V25.0371H162.223ZM162.223 17.1026V17.422H171.216V17.1026V16.7832H162.223V17.1026ZM171.216 17.1026H170.896V25.0371H171.216H171.535V17.1026H171.216ZM171.216 25.0371V24.7177H162.223V25.0371V25.3566H171.216V25.0371ZM162.223 65.7017H162.543V29.9962H162.223H161.904V65.7017H162.223ZM162.223 29.9962V30.3156H171.216V29.9962V29.6768H162.223V29.9962ZM171.216 29.9962H170.896V65.7017H171.216H171.535V29.9962H171.216ZM171.216 65.7017V65.3822H162.223V65.7017V66.0211H171.216V65.7017Z" fill="#0048FF" mask="url(#path-8-outside-1_306_931)"/>
<mask id="path-10-outside-2_306_931" maskUnits="userSpaceOnUse" x="175.699" y="16.7017" width="48" height="51" fill="black">
<rect fill="white" x="175.699" y="16.7017" width="48" height="51"/>
<path d="M216.554 66.6935L202.668 52.8741L208.223 47.32L222.042 61.1393L216.554 66.6935ZM199.759 66.6935C194.998 66.6935 190.888 65.6576 187.428 63.5858C183.989 61.514 181.333 58.6157 179.46 54.8908C177.609 51.166 176.683 46.8351 176.683 41.898C176.683 36.961 177.609 32.63 179.46 28.9052C181.333 25.1804 183.989 22.2821 187.428 20.2103C190.888 18.1385 194.998 17.1026 199.759 17.1026C204.52 17.1026 208.619 18.1385 212.058 20.2103C215.518 22.2821 218.174 25.1804 220.025 28.9052C221.899 32.63 222.835 36.961 222.835 41.898C222.835 46.8351 221.899 51.166 220.025 54.8908C218.174 58.6157 215.518 61.514 212.058 63.5858C208.619 65.6576 204.52 66.6935 199.759 66.6935ZM199.759 58.23C202.779 58.274 205.291 57.6239 207.297 56.2794C209.303 54.9349 210.801 53.0284 211.793 50.5599C212.807 48.0914 213.314 45.2041 213.314 41.898C213.314 38.592 212.807 35.7267 211.793 33.3023C210.801 30.8778 209.303 28.9934 207.297 27.6489C205.291 26.3045 202.779 25.6102 199.759 25.5661C196.74 25.522 194.227 26.1722 192.221 27.5167C190.216 28.8611 188.706 30.7676 187.692 33.2362C186.7 35.7047 186.204 38.592 186.204 41.898C186.204 45.2041 186.7 48.0693 187.692 50.4938C188.706 52.9182 190.216 54.8027 192.221 56.1471C194.227 57.4916 196.74 58.1859 199.759 58.23Z"/>
</mask>
<path d="M216.554 66.6935L202.668 52.8741L208.223 47.32L222.042 61.1393L216.554 66.6935ZM199.759 66.6935C194.998 66.6935 190.888 65.6576 187.428 63.5858C183.989 61.514 181.333 58.6157 179.46 54.8908C177.609 51.166 176.683 46.8351 176.683 41.898C176.683 36.961 177.609 32.63 179.46 28.9052C181.333 25.1804 183.989 22.2821 187.428 20.2103C190.888 18.1385 194.998 17.1026 199.759 17.1026C204.52 17.1026 208.619 18.1385 212.058 20.2103C215.518 22.2821 218.174 25.1804 220.025 28.9052C221.899 32.63 222.835 36.961 222.835 41.898C222.835 46.8351 221.899 51.166 220.025 54.8908C218.174 58.6157 215.518 61.514 212.058 63.5858C208.619 65.6576 204.52 66.6935 199.759 66.6935ZM199.759 58.23C202.779 58.274 205.291 57.6239 207.297 56.2794C209.303 54.9349 210.801 53.0284 211.793 50.5599C212.807 48.0914 213.314 45.2041 213.314 41.898C213.314 38.592 212.807 35.7267 211.793 33.3023C210.801 30.8778 209.303 28.9934 207.297 27.6489C205.291 26.3045 202.779 25.6102 199.759 25.5661C196.74 25.522 194.227 26.1722 192.221 27.5167C190.216 28.8611 188.706 30.7676 187.692 33.2362C186.7 35.7047 186.204 38.592 186.204 41.898C186.204 45.2041 186.7 48.0693 187.692 50.4938C188.706 52.9182 190.216 54.8027 192.221 56.1471C194.227 57.4916 196.74 58.1859 199.759 58.23Z" fill="#0048FF"/>
<path d="M216.554 66.6935L216.329 66.9199L216.556 67.146L216.781 66.918L216.554 66.6935ZM202.668 52.8741L202.443 52.6483L202.216 52.8747L202.443 53.1006L202.668 52.8741ZM208.223 47.32L208.449 47.0941L208.223 46.8682L207.997 47.0941L208.223 47.32ZM222.042 61.1393L222.269 61.3638L222.492 61.1379L222.268 60.9134L222.042 61.1393ZM187.428 63.5858L187.263 63.8594L187.263 63.8598L187.428 63.5858ZM179.46 54.8908L179.174 55.033L179.175 55.0344L179.46 54.8908ZM179.46 28.9052L179.175 28.7617L179.174 28.763L179.46 28.9052ZM187.428 20.2103L187.263 19.9362L187.263 19.9367L187.428 20.2103ZM212.058 20.2103L211.893 20.4839L211.894 20.4843L212.058 20.2103ZM220.025 28.9052L219.739 29.0474L219.74 29.0487L220.025 28.9052ZM220.025 54.8908L219.74 54.7473L219.739 54.7487L220.025 54.8908ZM212.058 63.5858L211.894 63.3117L211.893 63.3122L212.058 63.5858ZM199.759 58.23L199.754 58.5494L199.759 58.23ZM207.297 56.2794L207.475 56.5447L207.475 56.5447L207.297 56.2794ZM211.793 50.5599L211.498 50.4385L211.497 50.4408L211.793 50.5599ZM211.793 33.3023L211.498 33.4232L211.499 33.4255L211.793 33.3023ZM207.297 27.6489L207.475 27.3836L207.475 27.3836L207.297 27.6489ZM199.759 25.5661L199.764 25.2467L199.764 25.2467L199.759 25.5661ZM187.692 33.2362L187.397 33.1148L187.396 33.1171L187.692 33.2362ZM187.692 50.4938L187.396 50.6147L187.397 50.617L187.692 50.4938ZM192.221 56.1471L192.043 56.4125L192.043 56.4125L192.221 56.1471ZM216.554 66.6935L216.779 66.4671L202.894 52.6477L202.668 52.8741L202.443 53.1006L216.329 66.9199L216.554 66.6935ZM202.668 52.8741L202.894 53.1L208.449 47.5458L208.223 47.32L207.997 47.0941L202.443 52.6483L202.668 52.8741ZM208.223 47.32L207.997 47.5458L221.816 61.3652L222.042 61.1393L222.268 60.9134L208.449 47.0941L208.223 47.32ZM222.042 61.1393L221.815 60.9148L216.327 66.469L216.554 66.6935L216.781 66.918L222.269 61.3638L222.042 61.1393ZM199.759 66.6935V66.3741C195.046 66.3741 190.994 65.3489 187.592 63.3117L187.428 63.5858L187.263 63.8598C190.782 65.9663 194.951 67.0129 199.759 67.0129V66.6935ZM187.428 63.5858L187.592 63.3122C184.208 61.2727 181.593 58.4205 179.745 54.7473L179.46 54.8908L179.175 55.0344C181.074 58.8109 183.771 61.7552 187.263 63.8594L187.428 63.5858ZM179.46 54.8908L179.746 54.7487C177.92 51.0755 177.002 46.7949 177.002 41.898H176.683H176.363C176.363 46.8753 177.297 51.2565 179.174 55.033L179.46 54.8908ZM176.683 41.898H177.002C177.002 37.0012 177.92 32.7205 179.746 29.0474L179.46 28.9052L179.174 28.763C177.297 32.5396 176.363 36.9208 176.363 41.898H176.683ZM179.46 28.9052L179.745 29.0487C181.593 25.3756 184.208 22.5233 187.592 20.4839L187.428 20.2103L187.263 19.9367C183.771 22.0408 181.074 24.9852 179.175 28.7617L179.46 28.9052ZM187.428 20.2103L187.592 20.4843C190.994 18.4472 195.046 17.422 199.759 17.422V17.1026V16.7832C194.951 16.7832 190.782 17.8298 187.263 19.9362L187.428 20.2103ZM199.759 17.1026V17.422C204.473 17.422 208.513 18.4472 211.893 20.4839L212.058 20.2103L212.223 19.9367C208.726 17.8297 204.567 16.7832 199.759 16.7832V17.1026ZM212.058 20.2103L211.894 20.4843C215.3 22.5237 217.914 25.3755 219.739 29.0474L220.025 28.9052L220.311 28.763C218.434 24.9853 215.736 22.0404 212.222 19.9362L212.058 20.2103ZM220.025 28.9052L219.74 29.0487C221.587 32.7216 222.516 37.0017 222.516 41.898H222.835H223.155C223.155 36.9203 222.21 32.5385 220.311 28.7617L220.025 28.9052ZM222.835 41.898H222.516C222.516 46.7944 221.587 51.0745 219.74 54.7473L220.025 54.8908L220.311 55.0344C222.21 51.2575 223.155 46.8758 223.155 41.898H222.835ZM220.025 54.8908L219.739 54.7487C217.914 58.4206 215.3 61.2723 211.894 63.3117L212.058 63.5858L212.222 63.8598C215.736 61.7556 218.434 58.8108 220.311 55.033L220.025 54.8908ZM212.058 63.5858L211.893 63.3122C208.513 65.3488 204.473 66.3741 199.759 66.3741V66.6935V67.0129C204.567 67.0129 208.726 65.9663 212.223 63.8594L212.058 63.5858ZM199.759 58.23L199.754 58.5494C202.823 58.5941 205.403 57.9335 207.475 56.5447L207.297 56.2794L207.119 56.0141C205.18 57.3142 202.735 57.9539 199.764 57.9106L199.759 58.23ZM207.297 56.2794L207.475 56.5447C209.539 55.1609 211.076 53.2007 212.09 50.679L211.793 50.5599L211.497 50.4408C210.526 52.8561 209.066 54.7089 207.119 56.0141L207.297 56.2794ZM211.793 50.5599L212.089 50.6813C213.122 48.1662 213.633 45.2361 213.633 41.898H213.314H212.995C212.995 45.1721 212.492 48.0165 211.498 50.4386L211.793 50.5599ZM213.314 41.898H213.633C213.633 38.5602 213.122 35.6512 212.088 33.179L211.793 33.3023L211.499 33.4255C212.492 35.8023 212.995 38.6238 212.995 41.898H213.314ZM211.793 33.3023L212.089 33.1813C211.075 30.7033 209.538 28.7664 207.475 27.3836L207.297 27.6489L207.119 27.9142C209.068 29.2203 210.528 31.0523 211.498 33.4232L211.793 33.3023ZM207.297 27.6489L207.475 27.3836C205.406 25.997 202.83 25.2915 199.764 25.2467L199.759 25.5661L199.754 25.8855C202.728 25.9289 205.176 26.6119 207.119 27.9142L207.297 27.6489ZM199.759 25.5661L199.764 25.2467C196.696 25.2019 194.115 25.8626 192.043 27.2513L192.221 27.5167L192.399 27.782C194.339 26.4818 196.784 25.8421 199.754 25.8855L199.759 25.5661ZM192.221 27.5167L192.043 27.2513C189.98 28.6347 188.432 30.5941 187.397 33.1148L187.692 33.2362L187.988 33.3575C188.98 30.9412 190.452 29.0875 192.399 27.782L192.221 27.5167ZM187.692 33.2362L187.396 33.1171C186.385 35.6314 185.885 38.5607 185.885 41.898H186.204H186.524C186.524 38.6232 187.015 35.7779 187.988 33.3552L187.692 33.2362ZM186.204 41.898H185.885C185.885 45.2351 186.385 48.1433 187.396 50.6147L187.692 50.4938L187.988 50.3728C187.015 47.9954 186.524 45.1731 186.524 41.898H186.204ZM187.692 50.4938L187.397 50.617C188.433 53.0939 189.981 55.03 192.043 56.4125L192.221 56.1471L192.399 55.8818C190.45 54.5753 188.979 52.7425 187.987 50.3706L187.692 50.4938ZM192.221 56.1471L192.043 56.4125C194.112 57.799 196.689 58.5046 199.754 58.5494L199.759 58.23L199.764 57.9106C196.791 57.8672 194.342 57.1842 192.399 55.8818L192.221 56.1471Z" fill="#0048FF" mask="url(#path-10-outside-2_306_931)"/>
</svg>
